<?xml version="1.0" encoding="UTF-8" standalone="no"?>
<svg
   xmlns:dc="http://purl.org/dc/elements/1.1/"
   xmlns:cc="http://creativecommons.org/ns#"
   xmlns:rdf="http://www.w3.org/1999/02/22-rdf-syntax-ns#"
   xmlns:svg="http://www.w3.org/2000/svg"
   xmlns="http://www.w3.org/2000/svg"
   xmlns:sodipodi="http://sodipodi.sourceforge.net/DTD/sodipodi-0.dtd"
   xmlns:inkscape="http://www.inkscape.org/namespaces/inkscape"
   viewBox="0 0 351.76648 362.26321"
   height="362.26321"
   width="351.76648"
   xml:space="preserve"
   id="svg2"
   version="1.1"
   sodipodi:docname="VT LOGO.svg"
   inkscape:version="0.92.3 (2405546, 2018-03-11)"
   inkscape:export-filename="C:\Users\matth\Desktop\Vanderbilt-Toastmasters logo.png"
   inkscape:export-xdpi="96"
   inkscape:export-ydpi="96"><sodipodi:namedview
     pagecolor="#ffffff"
     bordercolor="#666666"
     borderopacity="1"
     objecttolerance="10"
     gridtolerance="10"
     guidetolerance="10"
     inkscape:pageopacity="0"
     inkscape:pageshadow="2"
     inkscape:window-width="1333"
     inkscape:window-height="826"
     id="namedview24"
     showgrid="false"
     inkscape:zoom="1.4142136"
     inkscape:cx="140.80537"
     inkscape:cy="231.11094"
     inkscape:window-x="-8"
     inkscape:window-y="-8"
     inkscape:window-maximized="1"
     inkscape:current-layer="flowRoot1001" /><metadata
     id="metadata8"><rdf:RDF><cc:Work
         rdf:about=""><dc:format>image/svg+xml</dc:format><dc:type
           rdf:resource="http://purl.org/dc/dcmitype/StillImage" /><dc:title></dc:title></cc:Work></rdf:RDF></metadata><defs
     id="defs6"><inkscape:path-effect
       effect="skeletal"
       id="path-effect259"
       is_visible="true"
       pattern="m -8.6815503,-17.937504 c 0,-2.76 2.24,-5 4.9999998,-5 2.7600001,0 5.0000001,2.24 5.0000001,5 0,2.76 -2.24,5 -5.0000001,5 -2.7599998,0 -4.9999998,-2.24 -4.9999998,-5 z"
       copytype="single_stretched"
       prop_scale="1.2342226"
       scale_y_rel="false"
       spacing="0"
       normal_offset="0"
       tang_offset="0"
       prop_units="false"
       vertical_pattern="false"
       fuse_tolerance="0" /><inkscape:path-effect
       effect="bspline"
       id="path-effect257"
       is_visible="true"
       weight="33.333333"
       steps="2"
       helper_size="0"
       apply_no_weight="true"
       apply_with_weight="true"
       only_selected="false" /><inkscape:path-effect
       fuse_tolerance="0"
       vertical_pattern="false"
       prop_units="false"
       tang_offset="0"
       normal_offset="0"
       spacing="0"
       scale_y_rel="false"
       prop_scale="1.9398271"
       copytype="single_stretched"
       pattern="m -66.62597,-17.937504 c 0,-2.76 2.24,-5 5,-5 2.76,0 5,2.24 5,5 0,2.76 -2.24,5 -5,5 -2.76,0 -5,-2.24 -5,-5 z"
       is_visible="true"
       id="path-effect254"
       effect="skeletal" /><inkscape:path-effect
       only_selected="false"
       apply_with_weight="true"
       apply_no_weight="true"
       helper_size="0"
       steps="2"
       weight="33.333333"
       is_visible="true"
       id="path-effect252"
       effect="bspline" /><inkscape:path-effect
       effect="skeletal"
       id="path-effect81"
       is_visible="true"
       pattern="m -66.62597,-17.937504 c 0,-2.76 2.24,-5 5,-5 2.76,0 5,2.24 5,5 0,2.76 -2.24,5 -5,5 -2.76,0 -5,-2.24 -5,-5 z"
       copytype="single_stretched"
       prop_scale="1.9398271"
       scale_y_rel="false"
       spacing="0"
       normal_offset="0"
       tang_offset="0"
       prop_units="false"
       vertical_pattern="false"
       fuse_tolerance="0" /><inkscape:path-effect
       effect="bspline"
       id="path-effect79"
       is_visible="true"
       weight="33.333333"
       steps="2"
       helper_size="0"
       apply_no_weight="true"
       apply_with_weight="true"
       only_selected="false" /><inkscape:path-effect
       fuse_tolerance="0"
       vertical_pattern="false"
       prop_units="false"
       tang_offset="0"
       normal_offset="0"
       spacing="0"
       scale_y_rel="false"
       prop_scale="1.2342226"
       copytype="single_stretched"
       pattern="m -8.6815503,-17.937504 c 0,-2.76 2.24,-5 4.9999998,-5 2.7600001,0 5.0000001,2.24 5.0000001,5 0,2.76 -2.24,5 -5.0000001,5 -2.7599998,0 -4.9999998,-2.24 -4.9999998,-5 z"
       is_visible="true"
       id="path-effect75"
       effect="skeletal" /><inkscape:path-effect
       only_selected="false"
       apply_with_weight="true"
       apply_no_weight="true"
       helper_size="0"
       steps="2"
       weight="33.333333"
       is_visible="true"
       id="path-effect73"
       effect="bspline" /><inkscape:path-effect
       fuse_tolerance="0"
       vertical_pattern="false"
       prop_units="false"
       tang_offset="0"
       normal_offset="0"
       spacing="0"
       scale_y_rel="false"
       prop_scale="2.3124995"
       copytype="single_stretched"
       pattern="m -205.18154,0.93089482 c 0,-2.76000002 2.24,-5.00000002 5,-5.00000002 2.76,0 5,2.24 5,5.00000002 0,2.75999998 -2.24,4.99999998 -5,4.99999998 -2.76,0 -5,-2.24 -5,-4.99999998 z"
       is_visible="true"
       id="path-effect55"
       effect="skeletal" /><inkscape:path-effect
       only_selected="false"
       apply_with_weight="true"
       apply_no_weight="true"
       helper_size="0"
       steps="2"
       weight="33.333333"
       is_visible="true"
       id="path-effect53"
       effect="bspline" /><inkscape:path-effect
       effect="skeletal"
       id="path-effect49"
       is_visible="true"
       pattern="m -147.23712,0.93089482 c 0,-2.76000002 2.24,-5.00000002 5,-5.00000002 2.76,0 5,2.24 5,5.00000002 0,2.75999998 -2.24,4.99999998 -5,4.99999998 -2.76,0 -5,-2.24 -5,-4.99999998 z"
       copytype="single_stretched"
       prop_scale="1.4713368"
       scale_y_rel="false"
       spacing="0"
       normal_offset="0"
       tang_offset="0"
       prop_units="false"
       vertical_pattern="false"
       fuse_tolerance="0" /><inkscape:path-effect
       effect="bspline"
       id="path-effect47"
       is_visible="true"
       weight="33.333333"
       steps="2"
       helper_size="0"
       apply_no_weight="true"
       apply_with_weight="true"
       only_selected="false" /></defs><g
     id="g5610"
     transform="matrix(-1,0,0,1,377.91879,-18.868399)"
     inkscape:label="Image"><g
       transform="matrix(-1,0,0,1,412.78021,124.32628)"
       id="g5575"
       inkscape:label="Text"><g
         id="g120"
         inkscape:label="VANDERBILT"><path
           inkscape:label="R-circle"
           id="path60"
           style="display:inline;fill:#231f20;fill-opacity:1;fill-rule:nonzero;stroke:none;stroke-width:0.13333333"
           d="m 386.20384,192.88 h 1.204 c 1.36667,0 2.528,-0.49853 2.528,-1.78133 0,-0.91187 -0.664,-1.82493 -2.528,-1.82493 -0.54,0 -0.912,0.0421 -1.204,0.0823 z m 0,5.7604 h -1.656 v -10.4016 c 0.86933,-0.12546 1.69867,-0.24946 2.94267,-0.24946 1.57466,0 2.60933,0.33226 3.232,0.78693 0.62266,0.45573 0.95333,1.16 0.95333,2.15573 0,1.36667 -0.912,2.19587 -2.032,2.52814 v 0.0839 c 0.912,0.16414 1.53467,0.9932 1.74133,2.52654 0.24934,1.61626 0.49734,2.23906 0.66267,2.56986 h -1.74 c -0.24933,-0.3308 -0.49733,-1.2844 -0.70533,-2.65213 -0.24667,-1.32813 -0.91067,-1.82387 -2.23734,-1.82387 h -1.16133 z m 1.74267,-13.3032 c -4.104,0 -7.46134,3.52294 -7.46134,7.87347 0,4.43493 3.35734,7.91613 7.50267,7.91613 4.144,0.0412 7.45867,-3.4812 7.45867,-7.8744 0,-4.39226 -3.31467,-7.9152 -7.45867,-7.9152 z m 0.0413,-1.4504 c 5.096,0 9.15867,4.14427 9.15867,9.32387 0,5.26413 -4.06267,9.36667 -9.2,9.36667 -5.09867,0 -9.24267,-4.10254 -9.24267,-9.36667 0,-5.1796 4.144,-9.32387 9.24267,-9.32387 h 0.0413"
           inkscape:connector-curvature="0"
           transform="translate(-10.518567,2.6e-6)" /><path
           inkscape:label="V"
           transform="matrix(0.13333333,0,0,-0.13333333,0,311.92)"
           inkscape:connector-curvature="0"
           d="m 638.281,1031.37 c -4.386,0 -9.187,-0.28 -13.75,-0.59 0.02,0 -1.062,-0.04 -1.062,-0.04 -4.438,-0.26 -9.067,-0.54 -13.293,-0.54 -6.555,0 -12.664,0.35 -18.606,0.63 -0.164,0.02 -1.109,0.05 -1.109,0.05 l -14.594,0.49 h -2.461 v -13.85 h 7.5 c 13.664,0 16.399,-2.78 16.399,-7.26 0,-2.83 -0.625,-7.83 -3.621,-15.651 0,0 -37.539,-95.179 -46.457,-117.789 -3.516,8.969 -49.637,126.38 -49.637,126.38 -1.543,3.99 -2.473,7.67 -2.473,8.52 0,2.82 4.5,5.8 12.852,5.8 h 9.328 v 13.85 h -2.524 l -16.582,-0.48 -0.418,-0.01 c -8.769,-0.3 -18.691,-0.68 -26.75,-0.68 -7.722,0 -16.011,0.35 -22.671,0.58 l -0.586,0.03 c -7.328,0.28 -14.895,0.56 -22.258,0.56 h -2.488 v -13.85 h 5.464 c 12.012,0 17.246,-2.3 22.485,-15.28 0,-0.02 76.851,-186.631 76.851,-186.631 h 14.184 l 0.684,1.461 c 2.117,4.828 12.109,29.11 24.753,59.879 l 5.735,13.93 c 15.269,37.211 47.066,114.591 48.66,117.551 4.211,8.43 8.602,9.09 13.496,9.09 h 5.481 v 13.85 h -2.043 -0.489"
           style="display:inline;fill:#231f20;fill-opacity:1;fill-rule:nonzero;stroke:none"
           id="path36" /><path
           inkscape:label="A"
           transform="matrix(0.13333333,0,0,-0.13333333,0,311.92)"
           inkscape:connector-curvature="0"
           d="m 710.82,914.641 c 1.575,4.687 21.895,66.609 24.325,73.988 5.363,-16.469 20.316,-62.457 24.074,-73.988 -4.793,0 -43.594,0 -48.399,0 z m -22.539,-72.86 c 0,3.071 1.426,7.25 3.262,12.571 l 0.117,0.269 c 0,0.008 3.035,9.5 3.035,9.5 0,0 7.075,22.949 8.891,28.93 2.82,0 60.711,0 63.465,0 0.871,-2.531 10.969,-32.582 10.969,-32.582 3.043,-8.797 5.769,-17.02 5.769,-20.469 0,-5.98 -10.969,-6.441 -14.316,-6.441 h -5.774 v -13.598 l 9.375,0.379 c 12.192,0.469 23.762,0.93 35.969,0.93 14.109,0 27.488,-0.649 40.461,-1.2 l 2.859,-0.14 v 14.011 h -4.277 c -8.992,0 -14.148,3.079 -17.207,10.289 -3.184,7.348 -6.191,16.18 -9.094,24.731 l -1.773,5.238 c -0.024,0.063 -53.196,149.711 -53.196,149.711 0,0 0.032,-0.11 0.039,-0.2 -0.156,0.55 -0.75,2.11 -2.792,7.48 -0.809,2.3 -2.43,2.15 -4.129,1.98 l -0.696,-0.05 c -0.019,0 -0.976,-0.1 -0.976,-0.1 l -2.625,-0.21 -7.676,-0.59 c 0.027,0 -0.441,-0.03 -0.441,-0.03 -4.473,-0.15 -7.43,-0.24 -14.012,0.03 -0.012,0 -2.016,0.1 -2.016,0.1 l -0.523,-1.97 c -1.789,-6.96 -5.918,-18.25 -9.614,-28.23 l -1.582,-4.401 -3.816,-10.528 c 0,-0.031 -47.297,-135.742 -47.297,-135.742 -3.941,-10.98 -12.676,-17.508 -23.379,-17.508 h -4.246 V 819.93 l 2.793,0.14 c 10.391,0.551 21.043,1.2 31.621,1.2 11.746,0 24.102,-0.649 34.989,-1.18 l 0.667,-0.02 2.618,-0.191 v 13.68 h -5.754 c -5.899,0 -19.688,0.793 -19.688,8.222"
           style="display:inline;fill:#231f20;fill-opacity:1;fill-rule:nonzero;stroke:none"
           id="path38" /><path
           inkscape:label="N"
           transform="matrix(0.13333333,0,0,-0.13333333,0,311.92)"
           inkscape:connector-curvature="0"
           d="m 1106.7,1030.7 c -5.48,-0.22 -11.7,-0.5 -17.84,-0.5 -7.09,0 -14.28,0.34 -20.59,0.58 l -0.51,0.03 c -6.63,0.28 -13.46,0.56 -20.31,0.56 h -0.47 -2.04 v -13.85 h 9.01 c 8.42,0 22.51,-3.27 22.51,-25.29 0,-0.96 0.56,-83.679 0.69,-105.511 -6.6,7.472 -128.439,144.651 -128.439,144.651 h -1.113 c -4.668,0 -9.246,-0.27 -13.301,-0.5 -4.024,-0.21 -8.535,-0.48 -13.035,-0.48 -5.688,0 -11.196,0.27 -16.028,0.48 -4.882,0.23 -10.421,0.5 -16.281,0.5 h -2.558 l 0.285,-12.76 6.172,-0.37 c 5.683,0 11.269,-2.38 15.418,-6.55 4.679,-4.59 7.238,-11.1 7.238,-18.26 l -0.899,-124.461 c 0,-22.43 -3.64,-35.41 -22.265,-35.41 -0.098,0 -6.629,-0.258 -6.629,-0.258 V 820.07 h 2.5 c 6.629,0 13.152,0.282 19.512,0.551 h 0.242 c 5.652,0.309 12.695,0.649 19.511,0.649 6.504,0 13.399,-0.34 18.958,-0.649 h 0.359 c 6.164,-0.269 12.558,-0.551 18.808,-0.551 h 2.532 v 13.871 h -7.551 c -19.023,0.098 -24.551,7.289 -24.551,32.071 0,0.008 -0.539,91.816 -0.676,115.207 22.661,-25.27 146.551,-163.391 147.921,-164.938 l 0.61,-0.672 h 15.27 l -0.47,2.879 c -1.54,9.473 -1.72,20.242 -1.72,29.481 l 0.8,134.511 c 0,35.04 12.99,35.04 22.47,35.04 0.08,0 6.9,0.32 6.9,0.32 v 13.37 h -2.48 c -6.3,0 -12.78,-0.3 -17.96,-0.51"
           style="display:inline;fill:#231f20;fill-opacity:1;fill-rule:nonzero;stroke:none"
           id="path40" /><path
           inkscape:label="D"
           transform="matrix(0.13333333,0,0,-0.13333333,0,311.92)"
           inkscape:connector-curvature="0"
           d="m 1348.51,920.699 c 0,-22.64 -6.63,-43.148 -18.69,-57.73 -13.17,-15.891 -32.2,-24.297 -55.08,-24.297 -20.08,0 -28.26,1.879 -28.26,20.859 0,0 0,149.149 0,152.739 1.17,0.12 2.36,0.25 2.36,0.25 l 0.84,0.08 c 4.74,0.45 9.62,0.91 14.4,0.91 26.65,0 46.1,-5.82 59.55,-17.78 16.75,-14.878 24.88,-39.449 24.88,-75.031 z m 14.14,81.941 c -21.23,18.82 -51.54,28.73 -87.62,28.73 l -18.17,-0.46 -3.46,-0.13 c -7.78,-0.24 -16.58,-0.58 -25.95,-0.58 -10.6,0 -21.61,0.4 -30.45,0.69 l -1.43,0.07 -4.08,0.13 -11.35,0.28 h -2.48 v -13.85 h 6.62 c 12.28,0 19.39,-2.34 19.39,-14.35 V 848.289 c 0,-13.449 -8.1,-14.551 -17.91,-14.551 l -6.62,-0.308 v -13.36 h 2.46 l 13.49,0.371 c 8.43,0.321 21.15,0.829 33.84,0.829 20.2,0 40.98,-0.649 53.69,-1.2 29.33,-1.742 57.29,8.418 78.72,28.641 21.33,20.09 33.56,48.391 33.56,77.598 0,31.25 -11.16,57.652 -32.25,76.331"
           style="display:inline;fill:#231f20;fill-opacity:1;fill-rule:nonzero;stroke:none"
           id="path42" /><path
           inkscape:label="E"
           transform="matrix(0.13333333,0,0,-0.13333333,0,311.92)"
           inkscape:connector-curvature="0"
           d="m 1601.65,871.461 c -4.23,-16.211 -8.85,-23.973 -16.5,-27.82 -7.87,-3.922 -19.17,-3.922 -36.34,-3.922 h -0.7 c -20.82,0 -33.54,0.832 -33.54,16.703 0,0 0,60.898 0,64.726 3.61,0 33.89,0 33.89,0 17.82,0 19.27,-7.32 21.12,-25.339 0,0.019 0.04,-0.508 0.04,-0.508 l 0.22,-2.281 13.08,2.789 v 2.043 c -0.63,12.25 -0.93,21.789 -0.93,32.039 0,11.281 0.3,19.308 0.9,31.078 l 0.17,2.711 -12.57,-0.27 -0.2,-2.23 c -1.73,-15.668 -6.68,-20.231 -22.15,-20.231 0,0 -29.96,0 -33.57,0 0,3.75 0,67.021 0,70.751 3.67,0 38.57,0 38.57,0 29.46,0 31.61,-9.72 33.03,-28.38 0,-0.019 0.2,-3 0.2,-3 l 13.01,3.469 -0.07,2.012 c -0.75,11.379 -0.07,26.299 0.48,38.249 l 0.33,7.44 -2.21,-0.1 -0.49,-0.02 c 0.06,0 -31.38,-0.48 -31.38,-0.48 l -2.94,-0.06 c -13.94,-0.28 -28.37,-0.63 -41.28,-0.63 -12.92,0 -27.85,0.35 -40.98,0.61 l -1.44,0.04 c -11.65,0.29 -22.81,0.52 -31.19,0.52 h -2.53 v -13.85 h 6.67 c 12.27,0 19.38,-2.34 19.38,-14.35 V 848.289 c 0,-12.629 -6.37,-15.117 -17.35,-15.117 h -6.67 V 820.07 h 2.54 l 30.05,0.481 5.11,0.129 c 13.26,0.25 28.29,0.59 41.43,0.59 13.27,0 28.4,-0.34 41.75,-0.629 l 3.49,-0.063 32.64,-0.508 h 2.27 l 0.2,2.219 2.43,16.16 c 1.38,10.02 2.67,19.481 5.17,29.582 0,-0.019 0.11,0.418 0.11,0.418 l 0.51,1.992 -13.05,3.289 -0.71,-2.269"
           style="display:inline;fill:#231f20;fill-opacity:1;fill-rule:nonzero;stroke:none"
           id="path44" /><path
           inkscape:label="B"
           transform="matrix(0.13333333,0,0,-0.13333333,0,311.92)"
           inkscape:connector-curvature="0"
           d="m 2055.83,879.898 c 0,-24.527 -17.36,-42.367 -41.25,-42.367 -20.97,0 -24.11,2.981 -24.11,22.649 0,0 0,60.582 0,64.48 3.24,-0.058 16.38,-0.301 16.38,-0.301 14.73,0 26.87,-3.66 35.24,-10.597 9.1,-7.59 13.74,-19 13.74,-33.864 z m -53.2,61.782 c 0,0 -8.3,0.23 -12.16,0.332 0,3.629 0,68.298 0,72.068 3.17,0 15.21,0 15.21,0 18.35,0 37.1,-4.44 37.1,-37.228 0,-23.692 -13.13,-35.172 -40.15,-35.172 z m 43.84,-6.121 c 20.58,6.152 40.92,19.203 40.92,46.929 0,14.66 -5.38,26.402 -16.01,34.792 -11.86,9.37 -29.95,14.09 -53.88,14.09 l -19.77,-0.48 -1.65,-0.06 c -8.4,-0.28 -17.08,-0.63 -25.85,-0.63 -8.58,0 -17.09,0.35 -25.32,0.63 l -1.76,0.06 -19.05,0.48 h -2.5 v -13.85 h 6.63 c 12.27,0 19.41,-2.34 19.41,-14.35 V 848.289 c 0,-12.008 -7.14,-14.348 -19.41,-14.348 h -6.63 V 820.07 h 2.5 l 19.96,0.442 2.69,0.078 c 9.4,0.32 20.07,0.68 29.72,0.68 9.58,0 19.34,-0.34 28.5,-0.68 8.57,-0.281 16.23,-0.52 23.18,-0.52 19.17,0 37.24,6.34 50.94,17.86 13.73,11.601 21.32,26.91 21.32,43.16 0,14.308 -5.25,26.988 -15.2,36.672 -9.53,9.258 -23.51,15.539 -38.74,17.797"
           style="display:inline;fill:#231f20;fill-opacity:1;fill-rule:nonzero;stroke:none"
           id="path46" /><path
           inkscape:label="I"
           transform="matrix(0.13333333,0,0,-0.13333333,0,311.92)"
           inkscape:connector-curvature="0"
           d="m 2252.11,1031.37 c -7.1,0 -14.92,-0.28 -22.3,-0.59 l -1.83,-0.04 c -7.28,-0.26 -14.85,-0.54 -21.71,-0.54 -7.51,0 -15.82,0.34 -23.8,0.63 l -2,0.06 -17.96,0.48 H 2160 v -13.85 h 6.62 c 12.29,0 19.39,-2.34 19.39,-14.35 V 848.289 c 0,-12.008 -7.1,-14.348 -19.39,-14.348 H 2160 V 820.07 h 2.51 c 5.43,0 11.99,0.239 19.41,0.52 7.95,0.34 16.34,0.68 24.03,0.68 6.89,0 14.46,-0.29 21.79,-0.559 l 2.07,-0.09 c 7.56,-0.269 15.36,-0.551 22.3,-0.551 h 2.47 v 13.871 h -6.61 c -12.27,0 -19.36,2.34 -19.36,14.348 v 154.881 c 0,12.01 7.09,14.35 19.36,14.35 h 6.61 v 13.85 h -2.02 -0.45"
           style="display:inline;fill:#231f20;fill-opacity:1;fill-rule:nonzero;stroke:none"
           id="path48" /><path
           inkscape:label="L"
           transform="matrix(0.13333333,0,0,-0.13333333,0,311.92)"
           inkscape:connector-curvature="0"
           d="m 2477.78,872.34 c -1.76,-6.512 -3.65,-11.481 -7.99,-17.512 -5.4,-7.476 -15.08,-12.699 -25.92,-13.976 -12.51,-1.383 -22,-1.563 -35.03,-0.622 -10.93,1.391 -15.41,5.461 -15.41,14.032 v 149.778 c 0,13.48 6.61,13.48 17.6,13.48 h 9.89 v 13.85 h -2.04 -0.49 c -7.36,0 -14.85,-0.28 -22.06,-0.56 l -0.47,-0.03 c -6.51,-0.23 -14.65,-0.58 -22.4,-0.58 -8.03,0 -16.1,0.34 -23.25,0.58 l -0.52,0.03 c -7.48,0.28 -15.23,0.56 -22.93,0.56 h -2.48 v -13.85 h 6.63 c 12.45,0 19.67,-2.34 19.67,-14.35 V 851.23 c 0,-15.98 -9.32,-17.289 -19.67,-17.289 h -6.63 V 820.07 h 2.48 c 12.81,0 25.82,0.282 38.41,0.551 h 0.68 c 11.39,0.309 25.51,0.649 38.96,0.649 13.38,0 26.59,-0.34 37.2,-0.649 h 0.49 c 11.79,-0.269 23.97,-0.551 36.85,-0.551 h 2.06 l 0.37,2 c 2.4,11.309 4.34,21.86 6.27,32.078 l 3.79,20.051 h -13.57 l -0.49,-1.859"
           style="display:inline;fill:#231f20;fill-opacity:1;fill-rule:nonzero;stroke:none"
           id="path50" /><path
           inkscape:label="R"
           transform="matrix(0.13333333,0,0,-0.13333333,0,311.92)"
           inkscape:connector-curvature="0"
           d="m 1794.41,974.148 c 0,-15.738 -3.81,-27.488 -11.34,-34.949 -7.07,-6.961 -17.54,-10.429 -31.2,-10.328 -0.14,0.02 -9.61,0.738 -12.44,0.949 0,3.559 0,79.66 0,83.12 0.76,0.07 1.53,0.15 1.53,0.15 3.3,0.42 6.92,0.8 12.82,0.8 25.06,0 40.63,-15.242 40.63,-39.742 z m 56.94,-123.796 c -0.26,0.386 -9.54,13.039 -22.65,30.859 l -15.27,20.809 c -6.43,8.421 -11.98,13.921 -16.66,16.48 20.35,9.148 42.26,28.859 42.26,57.43 0,20.25 -7.51,35.15 -22.38,44.36 -11.9,7.37 -28.88,11.08 -50.45,11.08 -7.66,0 -14.8,-0.27 -22.4,-0.54 -7.4,-0.28 -15.8,-0.63 -25.19,-0.63 -10.42,0 -21.11,0.43 -29.71,0.74 -0.07,0 -3.02,0.11 -3.02,0.11 l -13.1,0.32 h -2.5 v -13.85 h 7.81 c 10.12,0 18.48,-1.52 18.48,-19.969 V 847.359 c 0,-12.808 -13.13,-13.8 -17.2,-13.8 l -7.82,-0.231 V 820.07 h 2.51 c 7.4,0 14.32,0.282 21.04,0.551 h 0.3 c 6.13,0.309 13.08,0.649 20.23,0.649 8.69,0 17.91,-0.34 25.33,-0.649 h 0.33 c 8.32,-0.269 16.85,-0.551 25.19,-0.551 h 2.51 v 13.871 h -7.84 c -13.44,0 -21.72,1.02 -21.72,21.11 0,0 0,52.551 0,56.469 0.76,-0.032 1.59,-0.04 1.59,-0.04 l 11.87,-0.3 c 4.02,-0.25 7.44,-1.321 10.43,-5.711 11.74,-17.828 26.73,-39.969 48.8,-68.949 11.91,-16.211 27.05,-16.211 38.1,-16.211 l 33.38,-0.059 v 13.488 h -2.47 c -15.46,0.793 -20.43,2.543 -29.78,16.614"
           style="display:inline;fill:#231f20;fill-opacity:1;fill-rule:nonzero;stroke:none"
           id="path52" /><path
           inkscape:label="T"
           transform="matrix(0.13333333,0,0,-0.13333333,0,311.92)"
           inkscape:connector-curvature="0"
           d="m 2696.33,1032.18 -6.29,-0.49 c -0.06,0 -0.95,-0.05 -0.95,-0.05 0.03,0 -13.17,-0.27 -13.17,-0.27 h -141.99 c -7.51,0 -12.15,0.36 -16.63,0.73 -0.12,0 -0.75,0.02 -0.75,0.02 0.09,0 -8.67,0.82 -8.67,0.82 l -2.23,0.2 v -2.25 c 0,0 0,-0.91 0,-1.12 0,-6.4 -0.29,-9.67 -1.16,-17.12 0,-0.02 -0.17,-1.83 -0.17,-1.83 l -3.05,-24.191 -0.45,-2.879 h 14.04 l 0.35,2.109 c 4.35,21.051 5.02,24.281 25.22,24.471 0,0 36.08,0 39.78,0 0,-3.98 0,-154.06 0,-154.06 0,-21.43 -6.77,-22.329 -22.01,-22.329 h -8.18 V 820.07 h 2.5 l 19.93,0.481 3.14,0.09 c 8.52,0.289 18.2,0.629 26.89,0.629 7.91,0 17.28,-0.34 25.57,-0.629 l 2.17,-0.063 c 0.03,0 20.45,-0.508 20.45,-0.508 h 2.53 v 13.871 h -8.14 c -12.89,0 -22.01,1.661 -22.01,22.918 0,0 0,149.491 0,153.471 3.68,0 41.01,0 41.01,0 18.38,-0.19 19.29,-16.389 19.78,-25.1 0,-0.039 0.09,-3.14 0.09,-3.14 l 13.63,3.371 v 1.969 l 0.36,21.63 0.04,1.9 c 0.19,5.78 0.58,12.35 1.17,18.49 l 0.36,3.01 -3.16,-0.28"
           style="display:inline;fill:#231f20;fill-opacity:1;fill-rule:nonzero;stroke:none"
           id="path54" /></g><g
         aria-label="TOASTMASTERS"
         transform="translate(33.042374,33.042374)"
         style="font-style:normal;font-weight:normal;font-size:40px;line-height:114.99999762%;font-family:sans-serif;letter-spacing:0px;word-spacing:0px;fill:#000000;fill-opacity:1;stroke:none"
         id="flowRoot1001"
         inkscape:label="TOASTMASTERS"><path
           d="M 36.076261,195.02338 H 27.62826 v -2.98667 h 20.480001 v 2.98667 h -8.448 v 25.00266 h -3.584 z"
           style="font-style:normal;font-variant:normal;font-weight:normal;font-stretch:normal;font-size:42.66666794px;font-family:'Source Sans Pro';-inkscape-font-specification:'Source Sans Pro';letter-spacing:1.44000006px"
           id="path45"
           inkscape:connector-curvature="0"
           inkscape:label="T" /><path
           d="m 63.872262,220.53804 q -2.645333,0 -4.864,-1.024 -2.176,-1.024 -3.754667,-2.90133 -1.578667,-1.92 -2.474667,-4.608 -0.853333,-2.73067 -0.853333,-6.10133 0,-3.37067 0.853333,-6.016 0.896,-2.688 2.474667,-4.52267 1.578667,-1.87733 3.754667,-2.85867 2.218667,-0.98133 4.864,-0.98133 2.645333,0 4.821333,1.024 2.218667,0.98133 3.797334,2.85867 1.621333,1.83466 2.474667,4.52266 0.896,2.64534 0.896,5.97334 0,3.37066 -0.896,6.10133 -0.853334,2.688 -2.474667,4.608 -1.578667,1.87733 -3.797334,2.90133 -2.176,1.024 -4.821333,1.024 z m 0,-3.11466 q 1.877333,0 3.370667,-0.81067 1.536,-0.81067 2.602667,-2.304 1.109333,-1.536 1.706666,-3.62667 0.597334,-2.13333 0.597334,-4.77866 0,-2.60267 -0.597334,-4.69334 -0.597333,-2.09066 -1.706666,-3.54133 -1.066667,-1.45067 -2.602667,-2.21867 -1.493334,-0.81066 -3.370667,-0.81066 -1.877333,0 -3.413333,0.81066 -1.493334,0.768 -2.602667,2.21867 -1.066667,1.45067 -1.664,3.54133 -0.597334,2.09067 -0.597334,4.69334 0,2.64533 0.597334,4.77866 0.597333,2.09067 1.664,3.62667 1.109333,1.49333 2.602667,2.304 1.536,0.81067 3.413333,0.81067 z"
           style="font-style:normal;font-variant:normal;font-weight:normal;font-stretch:normal;font-size:42.66666794px;font-family:'Source Sans Pro';-inkscape-font-specification:'Source Sans Pro';letter-spacing:1.44000006px"
           id="path47"
           inkscape:connector-curvature="0"
           inkscape:label="O" /><path
           d="m 94.807595,208.63404 -1.322666,-4.26666 q -0.768,-2.34667 -1.450667,-4.65067 -0.682667,-2.34667 -1.365334,-4.77867 h -0.170666 q -0.64,2.432 -1.322667,4.77867 -0.682667,2.304 -1.450667,4.65067 l -1.322666,4.26666 z m 0.896,2.85867 H 85.506262 l -2.688,8.53333 h -3.626667 l 9.472,-27.98933 h 4.010667 l 9.471998,27.98933 h -3.797331 z"
           style="font-style:normal;font-variant:normal;font-weight:normal;font-stretch:normal;font-size:42.66666794px;font-family:'Source Sans Pro';-inkscape-font-specification:'Source Sans Pro';letter-spacing:1.44000006px"
           id="path49"
           inkscape:connector-curvature="0"
           inkscape:label="A" /><path
           d="m 115.35893,220.53804 q -2.944,0 -5.46134,-1.10933 -2.51733,-1.10933 -4.352,-3.02933 l 2.13334,-2.47467 q 1.49333,1.57867 3.49866,2.56 2.048,0.93867 4.224,0.93867 2.77334,0 4.30934,-1.23734 1.536,-1.28 1.536,-3.328 0,-1.06666 -0.384,-1.792 -0.34134,-0.768 -0.98134,-1.28 -0.59733,-0.55466 -1.45066,-0.98133 -0.85334,-0.42667 -1.83467,-0.896 l -4.01067,-1.74933 q -0.98133,-0.42667 -2.00533,-1.024 -1.024,-0.59734 -1.83467,-1.45067 -0.81066,-0.85333 -1.32266,-2.00533 -0.512,-1.19467 -0.512,-2.73067 0,-1.57867 0.64,-2.944 0.68266,-1.36533 1.83466,-2.34667 1.19467,-1.024 2.77334,-1.57866 1.62133,-0.55467 3.54133,-0.55467 2.51733,0 4.65067,0.98133 2.13333,0.93867 3.62666,2.47467 l -1.92,2.304 q -1.28,-1.23733 -2.85866,-1.92 -1.536,-0.72533 -3.49867,-0.72533 -2.34667,0 -3.79733,1.10933 -1.408,1.06667 -1.408,2.98667 0,1.024 0.384,1.74933 0.42666,0.68267 1.10933,1.23733 0.68267,0.512 1.49333,0.93867 0.81067,0.384 1.664,0.72533 l 3.968,1.70667 q 1.19467,0.512 2.26134,1.19467 1.06666,0.64 1.83466,1.536 0.768,0.85333 1.19467,2.048 0.46933,1.152 0.46933,2.688 0,1.664 -0.68266,3.11466 -0.64,1.45067 -1.87734,2.56 -1.23733,1.06667 -2.98666,1.70667 -1.74934,0.59733 -3.968,0.59733 z"
           style="font-style:normal;font-variant:normal;font-weight:normal;font-stretch:normal;font-size:42.66666794px;font-family:'Source Sans Pro';-inkscape-font-specification:'Source Sans Pro';letter-spacing:1.44000006px"
           id="path51"
           inkscape:connector-curvature="0"
           inkscape:label="S" /><path
           d="m 136.75293,195.02338 h -8.448 v -2.98667 h 20.48 v 2.98667 h -8.448 v 25.00266 h -3.584 z"
           style="font-style:normal;font-variant:normal;font-weight:normal;font-stretch:normal;font-size:42.66666794px;font-family:'Source Sans Pro';-inkscape-font-specification:'Source Sans Pro';letter-spacing:1.44000006px"
           id="path53"
           inkscape:connector-curvature="0"
           inkscape:label="T" /><path
           d="m 155.2236,192.03671 h 4.26667 l 5.376,14.93333 q 0.512,1.45067 0.98133,2.944 0.512,1.45067 1.024,2.90134 h 0.17067 q 0.512,-1.45067 0.93866,-2.90134 0.46934,-1.49333 0.98134,-2.944 l 5.29066,-14.93333 h 4.30934 v 27.98933 h -3.328 v -15.40266 q 0,-1.87734 0.17066,-4.13867 0.17067,-2.26133 0.29867,-4.13867 h -0.17067 l -2.21866,6.35734 -5.29067,14.50666 h -2.34667 l -5.29066,-14.50666 -2.21867,-6.35734 h -0.17067 q 0.128,1.87734 0.256,4.13867 0.17067,2.26133 0.17067,4.13867 v 15.40266 h -3.2 z"
           style="font-style:normal;font-variant:normal;font-weight:normal;font-stretch:normal;font-size:42.66666794px;font-family:'Source Sans Pro';-inkscape-font-specification:'Source Sans Pro';letter-spacing:1.44000006px"
           id="path55"
           inkscape:connector-curvature="0"
           inkscape:label="M" /><path
           d="m 199.56759,208.63404 -1.32266,-4.26666 q -0.768,-2.34667 -1.45067,-4.65067 -0.68267,-2.34667 -1.36533,-4.77867 h -0.17067 q -0.64,2.432 -1.32267,4.77867 -0.68266,2.304 -1.45066,4.65067 l -1.32267,4.26666 z m 0.896,2.85867 h -10.19733 l -2.688,8.53333 h -3.62667 l 9.472,-27.98933 h 4.01067 l 9.472,27.98933 h -3.79733 z"
           style="font-style:normal;font-variant:normal;font-weight:normal;font-stretch:normal;font-size:42.66666794px;font-family:'Source Sans Pro';-inkscape-font-specification:'Source Sans Pro';letter-spacing:1.44000006px"
           id="path57"
           inkscape:connector-curvature="0"
           inkscape:label="A" /><path
           d="m 220.11893,220.53804 q -2.944,0 -5.46133,-1.10933 -2.51734,-1.10933 -4.352,-3.02933 l 2.13333,-2.47467 q 1.49333,1.57867 3.49867,2.56 2.048,0.93867 4.224,0.93867 2.77333,0 4.30933,-1.23734 1.536,-1.28 1.536,-3.328 0,-1.06666 -0.384,-1.792 -0.34133,-0.768 -0.98133,-1.28 -0.59734,-0.55466 -1.45067,-0.98133 -0.85333,-0.42667 -1.83467,-0.896 l -4.01066,-1.74933 q -0.98134,-0.42667 -2.00534,-1.024 -1.024,-0.59734 -1.83466,-1.45067 -0.81067,-0.85333 -1.32267,-2.00533 -0.512,-1.19467 -0.512,-2.73067 0,-1.57867 0.64,-2.944 0.68267,-1.36533 1.83467,-2.34667 1.19466,-1.024 2.77333,-1.57866 1.62133,-0.55467 3.54133,-0.55467 2.51734,0 4.65067,0.98133 2.13333,0.93867 3.62667,2.47467 l -1.92,2.304 q -1.28,-1.23733 -2.85867,-1.92 -1.536,-0.72533 -3.49867,-0.72533 -2.34666,0 -3.79733,1.10933 -1.408,1.06667 -1.408,2.98667 0,1.024 0.384,1.74933 0.42667,0.68267 1.10933,1.23733 0.68267,0.512 1.49334,0.93867 0.81066,0.384 1.664,0.72533 l 3.968,1.70667 q 1.19466,0.512 2.26133,1.19467 1.06667,0.64 1.83467,1.536 0.768,0.85333 1.19466,2.048 0.46934,1.152 0.46934,2.688 0,1.664 -0.68267,3.11466 -0.64,1.45067 -1.87733,2.56 -1.23734,1.06667 -2.98667,1.70667 -1.74933,0.59733 -3.968,0.59733 z"
           style="font-style:normal;font-variant:normal;font-weight:normal;font-stretch:normal;font-size:42.66666794px;font-family:'Source Sans Pro';-inkscape-font-specification:'Source Sans Pro';letter-spacing:1.44000006px"
           id="path59"
           inkscape:connector-curvature="0"
           inkscape:label="S" /><path
           d="m 241.51294,195.02338 h -8.448 v -2.98667 h 20.48 v 2.98667 h -8.448 v 25.00266 h -3.584 z"
           style="font-style:normal;font-variant:normal;font-weight:normal;font-stretch:normal;font-size:42.66666794px;font-family:'Source Sans Pro';-inkscape-font-specification:'Source Sans Pro';letter-spacing:1.44000006px"
           id="path61"
           inkscape:connector-curvature="0"
           inkscape:label="T" /><path
           d="m 259.9836,192.03671 h 16.128 v 2.98667 h -12.58667 v 8.78933 h 10.624 v 3.02933 h -10.624 v 10.15467 h 13.01334 v 3.02933 H 259.9836 Z"
           style="font-style:normal;font-variant:normal;font-weight:normal;font-stretch:normal;font-size:42.66666794px;font-family:'Source Sans Pro';-inkscape-font-specification:'Source Sans Pro';letter-spacing:1.44000006px"
           id="path63"
           inkscape:connector-curvature="0"
           inkscape:label="E" /><path
           d="m 287.46494,205.30604 h 4.69333 q 3.28533,0 5.03467,-1.32266 1.74933,-1.36534 1.74933,-4.096 0,-2.77334 -1.74933,-3.88267 -1.74934,-1.10933 -5.03467,-1.10933 h -4.69333 z m 11.81866,14.72 -6.74133,-11.81866 h -5.07733 v 11.81866 h -3.54134 v -27.98933 h 8.74667 q 2.13333,0 3.92533,0.42667 1.83467,0.384 3.11467,1.32266 1.32267,0.93867 2.048,2.432 0.72533,1.49334 0.72533,3.66934 0,3.28533 -1.70666,5.248 -1.70667,1.96266 -4.56534,2.688 l 7.08267,12.20266 z"
           style="font-style:normal;font-variant:normal;font-weight:normal;font-stretch:normal;font-size:42.66666794px;font-family:'Source Sans Pro';-inkscape-font-specification:'Source Sans Pro';letter-spacing:1.44000006px"
           id="path65"
           inkscape:connector-curvature="0"
           inkscape:label="R" /><path
           d="m 316.79561,220.53804 q -2.944,0 -5.46133,-1.10933 -2.51734,-1.10933 -4.352,-3.02933 l 2.13333,-2.47467 q 1.49333,1.57867 3.49867,2.56 2.048,0.93867 4.224,0.93867 2.77333,0 4.30933,-1.23734 1.536,-1.28 1.536,-3.328 0,-1.06666 -0.384,-1.792 -0.34133,-0.768 -0.98133,-1.28 -0.59734,-0.55466 -1.45067,-0.98133 -0.85333,-0.42667 -1.83467,-0.896 l -4.01066,-1.74933 q -0.98134,-0.42667 -2.00534,-1.024 -1.024,-0.59734 -1.83466,-1.45067 -0.81067,-0.85333 -1.32267,-2.00533 -0.512,-1.19467 -0.512,-2.73067 0,-1.57867 0.64,-2.944 0.68267,-1.36533 1.83467,-2.34667 1.19466,-1.024 2.77333,-1.57866 1.62133,-0.55467 3.54133,-0.55467 2.51734,0 4.65067,0.98133 2.13333,0.93867 3.62667,2.47467 l -1.92,2.304 q -1.28,-1.23733 -2.85867,-1.92 -1.536,-0.72533 -3.49867,-0.72533 -2.34666,0 -3.79733,1.10933 -1.408,1.06667 -1.408,2.98667 0,1.024 0.384,1.74933 0.42667,0.68267 1.10933,1.23733 0.68267,0.512 1.49334,0.93867 0.81066,0.384 1.664,0.72533 l 3.968,1.70667 q 1.19466,0.512 2.26133,1.19467 1.06667,0.64 1.83467,1.536 0.768,0.85333 1.19466,2.048 0.46934,1.152 0.46934,2.688 0,1.664 -0.68267,3.11466 -0.64,1.45067 -1.87733,2.56 -1.23734,1.06667 -2.98667,1.70667 -1.74933,0.59733 -3.968,0.59733 z"
           style="font-style:normal;font-variant:normal;font-weight:normal;font-stretch:normal;font-size:42.66666794px;font-family:'Source Sans Pro';-inkscape-font-specification:'Source Sans Pro';letter-spacing:1.44000006px"
           id="path67"
           inkscape:connector-curvature="0"
           inkscape:label="S" /></g></g><g
       id="g278"
       inkscape:label="Logo"><ellipse
         transform="scale(-1,1)"
         ry="46.64967"
         rx="48.630188"
         cy="86.218475"
         cx="-205.89027"
         id="path26"
         style="fill:#d8ab4c;fill-opacity:1;stroke:#d8ab4c;stroke-width:0.97647226;stroke-opacity:1"
         inkscape:label="Head" /><g
         transform="matrix(-1,0,0,0.96374548,405.93494,-23.992039)"
         id="g5579"
         inkscape:label="Body"><ellipse
           style="fill:#d8ab4c;fill-opacity:1;stroke:#d8ab4c;stroke-width:0.99466932;stroke-opacity:1"
           id="path26-6"
           cx="201.01724"
           cy="216.97408"
           rx="48.630188"
           ry="48.404552"
           inkscape:label="Body-top" /><rect
           style="fill:#d8ab4c;fill-opacity:1;stroke:#d8ab4c;stroke-width:0.5236432;stroke-opacity:1"
           id="rect43"
           width="97.732986"
           height="84.78038"
           x="152.15128"
           y="214.95779"
           inkscape:label="Body-rect" /></g><path
         inkscape:label="Right Inner Curve"
         style="fill:#000000;fill-opacity:1;stroke:#d8ab4c;stroke-width:1.23421204px;stroke-linecap:butt;stroke-linejoin:miter;stroke-opacity:1"
         d="m 140.26561,54.465269 c 0.89298,0.859765 -1.22323,4.611115 -5.46637,10.464386 -4.23417,5.840889 -10.67361,13.651334 -17.08941,23.333924 -4.879,7.636055 -10.64306,17.119351 -10.8779,26.220411 -0.008,0.29843 -0.01,0.5963 -0.006,0.89363 -0.12757,4.18805 0.9384,8.53072 2.44686,12.59069 1.86064,4.95112 4.62614,9.6902 7.35472,13.94548 6.0563,9.41837 12.24508,16.96995 16.30031,22.61788 4.06466,5.66107 6.08094,9.28087 5.2042,10.12369 -0.83792,0.80548 -4.45044,-1.25047 -9.92134,-5.6504 -5.13546,-4.13015 -13.24035,-11.43996 -20.50351,-20.72894 -3.43307,-4.38225 -6.93159,-9.64522 -9.576107,-15.78122 -2.207827,-5.08658 -3.703334,-10.98508 -3.644034,-17.3362 0.01688,-0.43554 0.04026,-0.86987 0.07,-1.30297 0.927059,-13.49731 7.945118,-24.501502 14.202378,-32.122251 7.56572,-9.510247 15.91446,-17.057059 21.24599,-21.361131 5.66335,-4.57195 9.40458,-6.730591 10.26001,-5.906979 z"
         id="path71"
         inkscape:connector-curvature="0"
         inkscape:path-effect="#path-effect257;#path-effect259"
         inkscape:original-d="m 140.26561,54.465269 c -19.62604,20.384369 -39.2533,40.769962 -58.88181,61.156791 18.91852,19.67776 37.83351,39.35431 56.74841,59.03329" /><path
         inkscape:label="Right Outer Curve"
         inkscape:original-d="M 104.83799,20.109123 C 73.99176,52.14723 43.1436,84.187261 12.29348,116.22923 c 29.73424,30.92752 59.46291,61.85314 89.19145,92.7826"
         inkscape:path-effect="#path-effect252;#path-effect254"
         inkscape:connector-curvature="0"
         id="path77"
         d="m 104.83799,20.109123 c 1.4035,1.351292 -1.92254,7.247288 -8.591494,16.446872 -6.654843,9.180123 -16.77571,21.455797 -26.859414,36.673919 -4.545701,6.878574 -9.192091,14.523579 -12.45988,22.527936 -2.434868,6.04842 -4.32045,12.45267 -4.608587,18.69956 -0.02143,0.46462 -0.034,0.92719 -0.03743,1.38764 -0.200504,6.58236 1.474885,13.40773 3.84573,19.78878 2.924358,7.78167 7.270898,15.23008 11.559397,21.91809 9.518689,14.80286 19.245584,26.67167 25.619187,35.54852 6.388431,8.89749 9.557424,14.58674 8.179434,15.91139 -1.31696,1.26599 -6.99474,-1.96536 -15.59335,-8.88072 -8.071402,-6.49136 -20.809862,-17.98019 -32.225358,-32.57967 -5.395753,-6.88757 -10.894372,-15.15939 -15.050764,-24.80333 -3.47004,-7.99458 -5.820527,-17.26524 -5.727325,-27.24731 0.01701,-0.69138 0.0455,-1.38129 0.08522,-2.06956 0.536082,-9.28823 3.090374,-17.840973 6.51898,-25.262288 C 43.959208,78.406361 49.711261,70.003034 55.320033,62.966402 67.211059,48.019149 80.332778,36.157828 88.712335,29.393119 97.613421,22.207387 103.49351,18.814652 104.83799,20.109123 Z"
         style="fill:#000000;fill-opacity:1;stroke:#d8ab4c;stroke-width:1.93981051px;stroke-linecap:butt;stroke-linejoin:miter;stroke-opacity:1" /><path
         inkscape:label="Left Inner Curve"
         style="fill:#000000;fill-opacity:1;stroke:#d8ab4c;stroke-width:1.23421204px;stroke-linecap:butt;stroke-linejoin:miter;stroke-opacity:1"
         d="m 269.56873,54.465269 c 0.85543,-0.823612 4.59666,1.335029 10.26001,5.906979 5.33153,4.304072 13.68027,11.850884 21.24599,21.361131 6.25726,7.620749 13.27532,18.624941 14.20238,32.122251 0.0297,0.4331 0.0531,0.86743 0.07,1.30297 0.0593,6.35112 -1.43621,12.24962 -3.64403,17.3362 -2.64452,6.136 -6.14304,11.39897 -9.57611,15.78122 -7.26316,9.28898 -15.36805,16.59879 -20.50351,20.72894 -5.4709,4.39993 -9.08342,6.45588 -9.92134,5.6504 -0.87674,-0.84282 1.13954,-4.46262 5.2042,-10.12369 4.05523,-5.64793 10.24401,-13.19951 16.30031,-22.61788 2.72858,-4.25528 5.49408,-8.99436 7.35472,-13.94548 1.50846,-4.05997 2.57443,-8.40264 2.44686,-12.59069 0.004,-0.29733 0.002,-0.5952 -0.006,-0.89363 -0.23484,-9.10106 -5.9989,-18.584356 -10.8779,-26.220411 -6.4158,-9.68259 -12.85524,-17.493035 -17.08941,-23.333924 -4.24314,-5.853271 -6.35935,-9.604621 -5.46637,-10.464386 z"
         id="path5606"
         inkscape:connector-curvature="0"
         inkscape:path-effect="#path-effect73;#path-effect75"
         inkscape:original-d="m 269.56873,54.465269 c 19.62604,20.384369 39.2533,40.769962 58.88181,61.156791 -18.91852,19.67776 -37.83351,39.35431 -56.74841,59.03329" /><path
         inkscape:label="Left Outer Curve"
         inkscape:original-d="m 304.99635,20.109123 c 30.84623,32.038107 61.69439,64.078138 92.54451,96.120107 -29.73424,30.92752 -59.46291,61.85314 -89.19145,92.7826"
         inkscape:path-effect="#path-effect79;#path-effect81"
         inkscape:connector-curvature="0"
         id="path5608"
         d="m 304.99635,20.109123 c 1.34448,-1.294471 7.22457,2.098264 16.12565,9.283996 8.37956,6.764709 21.50128,18.62603 33.39231,33.573283 5.60877,7.036632 11.36082,15.439959 15.8277,25.20255 3.4286,7.421315 5.98289,15.974058 6.51898,25.262288 0.0397,0.68827 0.0682,1.37818 0.0852,2.06956 0.0932,9.98207 -2.25729,19.25273 -5.72733,27.24731 -4.15639,9.64394 -9.65501,17.91576 -15.05076,24.80333 -11.4155,14.59948 -24.15396,26.08831 -32.22536,32.57967 -8.59861,6.91536 -14.27639,10.14671 -15.59335,8.88072 -1.37799,-1.32465 1.791,-7.0139 8.17943,-15.91139 6.37361,-8.87685 16.1005,-20.74566 25.61919,-35.54852 4.2885,-6.68801 8.63504,-14.13642 11.5594,-21.91809 2.37084,-6.38105 4.04623,-13.20642 3.84573,-19.78878 -0.003,-0.46045 -0.016,-0.92302 -0.0374,-1.38764 -0.28813,-6.24689 -2.17371,-12.65114 -4.60858,-18.69956 -3.26779,-8.004357 -7.91418,-15.649362 -12.45988,-22.527936 -10.08371,-15.218122 -20.20457,-27.493796 -26.85942,-36.673919 -6.66895,-9.199584 -9.99499,-15.09558 -8.59149,-16.446872 z"
         style="fill:#000000;fill-opacity:1;stroke:#d8ab4c;stroke-width:1.93981051px;stroke-linecap:butt;stroke-linejoin:miter;stroke-opacity:1" /></g></g></svg>